<svg width="12" height="12" viewBox="0 0 12 12" fill="none" xmlns="http://www.w3.org/2000/svg">
<path d="M7.31394 5.89982L10.8489 2.36382C10.9445 2.27157 11.0206 2.16123 11.073 2.03922C11.1255 1.91722 11.153 1.786 11.1542 1.65322C11.1553 1.52044 11.13 1.38876 11.0798 1.26587C11.0295 1.14297 10.9552 1.03132 10.8613 0.937425C10.7674 0.843532 10.6558 0.769279 10.5329 0.718998C10.41 0.668717 10.2783 0.643415 10.1455 0.644569C10.0128 0.645723 9.88154 0.673309 9.75954 0.725718C9.63753 0.778127 9.52719 0.854309 9.43494 0.949819L5.89894 4.48482L2.36394 0.949819C2.27169 0.854309 2.16135 0.778127 2.03935 0.725718C1.91734 0.673309 1.78612 0.645723 1.65334 0.644569C1.52056 0.643415 1.38888 0.668717 1.26599 0.718998C1.14309 0.769279 1.03144 0.843532 0.937547 0.937425C0.843654 1.03132 0.769401 1.14297 0.71912 1.26587C0.668839 1.38876 0.643537 1.52044 0.644691 1.65322C0.645845 1.786 0.673431 1.91722 0.72584 2.03922C0.778249 2.16123 0.854431 2.27157 0.949942 2.36382L4.48494 5.89882L0.949942 9.43482C0.854431 9.52707 0.778249 9.63741 0.72584 9.75942C0.673431 9.88142 0.645845 10.0126 0.644691 10.1454C0.643537 10.2782 0.668839 10.4099 0.71912 10.5328C0.769401 10.6557 0.843654 10.7673 0.937547 10.8612C1.03144 10.9551 1.14309 11.0294 1.26599 11.0796C1.38888 11.1299 1.52056 11.1552 1.65334 11.1541C1.78612 11.1529 1.91734 11.1253 2.03935 11.0729C2.16135 11.0205 2.27169 10.9443 2.36394 10.8488L5.89894 7.31382L9.43494 10.8488C9.52719 10.9443 9.63753 11.0205 9.75954 11.0729C9.88154 11.1253 10.0128 11.1529 10.1455 11.1541C10.2783 11.1552 10.41 11.1299 10.5329 11.0796C10.6558 11.0294 10.7674 10.9551 10.8613 10.8612C10.9552 10.7673 11.0295 10.6557 11.0798 10.5328C11.13 10.4099 11.1553 10.2782 11.1542 10.1454C11.153 10.0126 11.1255 9.88142 11.073 9.75942C11.0206 9.63741 10.9445 9.52707 10.8489 9.43482L7.31394 5.89882V5.89982Z" fill="#21272A"/>
</svg>
